<svg width="98" height="146" viewBox="0 0 98 146" fill="none" xmlns="http://www.w3.org/2000/svg">
<path d="M89.4948 55.771L80.6192 75.6603L66.1482 76.5802L64.0355 61.988L71.6778 45.9451C48.7457 59.6174 45.3339 67.093 56.7217 88.6048C51.0051 101.994 38.1718 114.312 25.1666 121.065C12.5861 127.408 5.40366 119.124 1.19329 102.742C0.834427 100.028 0.657521 97.2985 0.657521 94.564C-0.323045 68.1847 17.2564 41.204 50.3177 0C67.9173 21.9414 81.1347 39.8444 89.4948 55.771Z" fill="url(#paint0_linear_1027_1463)"/>
<path d="M17.3524 120.084C11.4488 120.084 7.05144 114.195 3.90756 102.08C3.58913 99.5881 3.42739 97.076 3.42739 94.5639C2.50747 69.792 19.167 43.6958 50.3075 4.66522C68.5643 27.5417 79.2039 42.6748 86.3257 55.9023L78.8501 72.6528L68.4834 73.3099L66.9216 62.5287L74.1191 47.4159C74.6953 46.2079 74.4982 44.7168 73.6339 43.7463C73.0981 43.1449 72.3855 42.8315 71.6677 42.8315C71.2078 42.8315 70.7579 42.9579 70.3637 43.1954C58.2228 50.4334 50.2772 56.6049 48.1746 65.0256C46.6127 71.278 48.1695 78.2127 53.5525 88.7159C48.1442 100.174 36.711 111.638 23.9889 118.239C21.5729 119.462 19.3287 120.084 17.3524 120.084Z" fill="url(#paint1_linear_1027_1463)"/>
<path d="M97.2029 90.3738C96.9047 98.466 95.7371 106.23 92.6185 113.766C86.4218 128.742 73.5784 141.035 57.6012 144.8C50.1559 146.554 42.2861 146.003 34.9673 143.916C31.3432 142.88 27.8405 141.444 24.4843 139.726C21.4162 138.149 17.5394 136.314 15.1234 133.847C27.2491 135.005 39.0614 127.175 47.5832 119.361C51.556 115.717 55.1599 111.668 58.3745 107.342C60.1082 105.007 61.7307 102.596 63.242 100.104C63.6969 99.3556 67.2956 92.0418 67.5939 92.0772C82.2265 93.9018 87.5893 85.8602 91.3347 62.362L91.4257 61.6038C95.5805 71.6622 97.5466 81.0585 97.2029 90.3738Z" fill="url(#paint2_linear_1027_1463)"/>
<path d="M47.5326 142.93C41.4774 142.93 30.7316 139.387 25.202 136.89C38.3183 132.503 55.9129 122.136 69.1607 95.3626C69.9138 95.4182 70.6416 95.4435 71.3341 95.4435C83.5356 95.4435 88.8933 87.2047 92.2394 72.5922C93.9124 78.7132 94.6301 84.5511 94.4178 90.2475C94.4229 119.351 73.3862 142.93 47.5326 142.93Z" fill="url(#paint3_linear_1027_1463)"/>
<defs>
<linearGradient id="paint0_linear_1027_1463" x1="46.2421" y1="0.119766" x2="44.2405" y2="124.234" gradientUnits="userSpaceOnUse">
<stop stop-color="#00ADEE"/>
<stop offset="0.21" stop-color="#0B97DA"/>
<stop offset="0.46" stop-color="#1484C9"/>
<stop offset="0.72" stop-color="#1979BE"/>
<stop offset="1" stop-color="#1B75BB"/>
</linearGradient>
<linearGradient id="paint1_linear_1027_1463" x1="22.8201" y1="-3.97813" x2="66.2754" y2="157.715" gradientUnits="userSpaceOnUse">
<stop stop-color="#00ADEE"/>
<stop offset="0.21" stop-color="#0B97DA"/>
<stop offset="0.46" stop-color="#1484C9"/>
<stop offset="0.72" stop-color="#1979BE"/>
<stop offset="1" stop-color="#1B75BB"/>
</linearGradient>
<linearGradient id="paint2_linear_1027_1463" x1="49.7911" y1="21.1095" x2="60.8346" y2="174.718" gradientUnits="userSpaceOnUse">
<stop stop-color="#FFF23A"/>
<stop offset="0.04" stop-color="#FEE62D"/>
<stop offset="0.12" stop-color="#FED41A"/>
<stop offset="0.2" stop-color="#FDC90F"/>
<stop offset="0.28" stop-color="#FDC60B"/>
<stop offset="0.67" stop-color="#F28F3F"/>
<stop offset="0.89" stop-color="#ED693C"/>
<stop offset="1" stop-color="#E83E39"/>
</linearGradient>
<linearGradient id="paint3_linear_1027_1463" x1="25.203" y1="107.758" x2="94.4586" y2="107.758" gradientUnits="userSpaceOnUse">
<stop stop-color="#FFF23A"/>
<stop offset="0.04" stop-color="#FEE62D"/>
<stop offset="0.12" stop-color="#FED41A"/>
<stop offset="0.2" stop-color="#FDC90F"/>
<stop offset="0.28" stop-color="#FDC60B"/>
<stop offset="0.67" stop-color="#F28F3F"/>
<stop offset="0.89" stop-color="#ED693C"/>
<stop offset="1" stop-color="#E83E39"/>
</linearGradient>
</defs>
</svg>
