<svg width="102" height="40" viewBox="0 0 102 40" fill="none" xmlns="http://www.w3.org/2000/svg">
<path d="M99.8755 15.2956L97.4413 20.7504L93.4725 21.0027L92.8931 17.0007L94.989 12.6008C88.6997 16.3505 87.764 18.4008 90.8872 24.3005C89.3194 27.9727 85.7997 31.3509 82.233 33.2029C78.7827 34.9426 76.8128 32.6706 75.6581 28.1778C75.5597 27.4334 75.5112 26.6849 75.5112 25.9349C75.2422 18.7002 80.0635 11.3005 89.1308 0C93.9577 6.01761 97.5827 10.9276 99.8755 15.2956Z" fill="url(#paint0_linear_33_859)"/>
<path d="M80.0898 32.934C78.4707 32.934 77.2647 31.319 76.4025 27.9962C76.3151 27.3128 76.2708 26.6239 76.2708 25.9349C76.0185 19.141 80.5875 11.9839 89.128 1.27948C94.1351 7.55354 97.0531 11.7039 99.0063 15.3317L96.956 19.9256L94.1129 20.1058L93.6846 17.149L95.6585 13.0042C95.8166 12.6729 95.7625 12.2639 95.5255 11.9978C95.3785 11.8328 95.1831 11.7469 94.9862 11.7469C94.8601 11.7469 94.7367 11.7815 94.6286 11.8467C91.2989 13.8318 89.1197 15.5243 88.543 17.8338C88.1147 19.5486 88.5417 21.4505 90.018 24.331C88.5347 27.4736 85.3991 30.6176 81.9099 32.428C81.2473 32.7634 80.6318 32.934 80.0898 32.934Z" fill="url(#paint1_linear_33_859)"/>
<path d="M101.989 24.7857C101.908 27.0051 101.587 29.1343 100.732 31.2012C99.0326 35.3086 95.5102 38.6799 91.1284 39.7126C89.0865 40.1936 86.9281 40.0425 84.9208 39.47C83.9269 39.1858 82.9663 38.7921 82.0458 38.3208C81.2044 37.8883 80.1411 37.3851 79.4785 36.7086C82.8041 37.0261 86.0437 34.8788 88.3809 32.7357C89.4704 31.7363 90.4588 30.6259 91.3405 29.4393C91.8159 28.7988 92.2609 28.1376 92.6754 27.4542C92.8002 27.249 93.7872 25.2432 93.8689 25.2529C97.8821 25.7533 99.3529 23.5478 100.38 17.1033L100.405 16.8953C101.544 19.6539 102.084 22.2309 101.989 24.7857Z" fill="url(#paint2_linear_33_859)"/>
<path d="M88.367 39.1997C86.7063 39.1997 83.7592 38.2279 82.2427 37.5432C85.8399 36.3399 90.6654 33.4968 94.2987 26.1539C94.5052 26.1692 94.7048 26.1761 94.8948 26.1761C98.2411 26.1761 99.7105 23.9165 100.628 19.909C101.087 21.5877 101.284 23.1888 101.226 24.7511C101.227 32.7329 95.4576 39.1997 88.367 39.1997Z" fill="url(#paint3_linear_33_859)"/>
<path d="M11.9445 21.3849H0.732666V24.4283H11.9445V21.3849Z" fill="#0285CE"/>
<path d="M11.9445 26.8873H0.732666V29.9307H11.9445V26.8873Z" fill="#0285CE"/>
<path d="M11.9445 32.3928H0.732666V35.4362H11.9445V32.3928Z" fill="#0285CE"/>
<path d="M17.7391 21.3849H14.0566V35.4361H17.7391V21.3849Z" fill="#0285CE"/>
<path d="M24.7814 26.0749V28.604H28.96V31.9182H24.7814V36.8211H20.545V22.7607H29.3617V26.0749H24.7814Z" fill="#0071A3"/>
<path d="M35.4485 24.0754C35.4485 24.6628 35.2354 25.1406 34.8063 25.5058C34.3772 25.871 33.8142 26.0536 33.1142 26.0536C32.4355 26.0536 31.8756 25.8649 31.4434 25.4845C31.0082 25.1041 30.7921 24.6354 30.7921 24.0723C30.7921 23.4971 31.0021 23.0315 31.4251 22.6754C31.8482 22.3194 32.4112 22.1398 33.1173 22.1398C33.8172 22.1398 34.3803 22.3194 34.8094 22.6754C35.2354 23.0315 35.4485 23.5002 35.4485 24.0754ZM31.0265 36.821V26.7809H35.205V36.821H31.0265Z" fill="#0071A3"/>
<path d="M37.2136 36.8211V21.9542H41.3922V36.8211H37.2136Z" fill="#0071A3"/>
<path d="M50.785 36.6841C50.5963 36.7754 50.2858 36.8607 49.8537 36.9428C49.4215 37.025 48.9011 37.0646 48.2955 37.0646C47.1329 37.0646 46.2229 36.745 45.5656 36.1029C44.9082 35.4637 44.5795 34.5507 44.5795 33.3669V29.6692H43V26.7749H44.5795V24.8028L48.6972 23.6646V26.7719H50.785V29.6661H48.6972V32.676C48.6972 33.5586 49.0472 33.9999 49.7472 33.9999C50.0728 33.9999 50.4197 33.9268 50.788 33.7838V36.6841H50.785Z" fill="#0071A3"/>
<path d="M58.1622 36.7677V35.315H58.1231C57.4519 36.4388 56.4262 37.0005 55.0459 37C54.093 37 53.3472 36.7332 52.8086 36.1997C52.2701 35.6662 52.0005 34.9524 52 34.0584C52 32.1838 53.2196 31.0977 55.6588 30.8L58.1638 30.493C58.1638 30.1822 58.016 29.9278 57.7203 29.7297C57.4247 29.5315 57.0268 29.431 56.5266 29.428C55.3957 29.428 54.2024 29.7319 52.9469 30.3399V27.7633C53.6068 27.5087 54.2948 27.3245 54.998 27.2142C55.6936 27.0839 56.4 27.0122 57.1091 27C58.8249 27 60.069 27.346 60.8414 28.0379C61.6138 28.7298 62 29.8863 62 31.5075V36.7677H58.1622ZM55.6772 33.5244C55.6727 33.6426 55.6935 33.7604 55.7384 33.8708C55.7833 33.9813 55.8513 34.082 55.9385 34.167C56.1127 34.3344 56.3609 34.4182 56.6832 34.4182C56.8875 34.4239 57.0904 34.3848 57.276 34.3041C57.4617 34.2233 57.6249 34.1031 57.7531 33.9528C58.0258 33.643 58.1622 33.2458 58.1622 32.7611V32.3982L56.7423 32.5906C56.0322 32.7002 55.6772 33.0125 55.6772 33.5274V33.5244Z" fill="#0071A3"/>
<path d="M70.575 30.36C70.4168 30.287 70.2068 30.223 69.939 30.1652C69.6711 30.1074 69.449 30.077 69.2725 30.077C67.8938 30.077 67.203 30.8743 67.203 32.4691V36.8241H63.0244V26.784H67.203V28.5492H67.2425C67.4982 27.9162 67.8603 27.4323 68.3321 27.1036C68.8038 26.7749 69.3516 26.6075 69.9785 26.6075C70.2068 26.6075 70.4076 26.6471 70.5781 26.7262V30.36H70.575Z" fill="#0071A3"/>
<defs>
<linearGradient id="paint0_linear_33_859" x1="88.0131" y1="0.0328466" x2="87.4641" y2="34.072" gradientUnits="userSpaceOnUse">
<stop stop-color="#00ADEE"/>
<stop offset="0.21" stop-color="#0B97DA"/>
<stop offset="0.46" stop-color="#1484C9"/>
<stop offset="0.72" stop-color="#1979BE"/>
<stop offset="1" stop-color="#1B75BB"/>
</linearGradient>
<linearGradient id="paint1_linear_33_859" x1="81.5894" y1="-1.09103" x2="93.5073" y2="43.2546" gradientUnits="userSpaceOnUse">
<stop stop-color="#00ADEE"/>
<stop offset="0.21" stop-color="#0B97DA"/>
<stop offset="0.46" stop-color="#1484C9"/>
<stop offset="0.72" stop-color="#1979BE"/>
<stop offset="1" stop-color="#1B75BB"/>
</linearGradient>
<linearGradient id="paint2_linear_33_859" x1="88.9864" y1="5.78944" x2="92.0152" y2="47.9178" gradientUnits="userSpaceOnUse">
<stop stop-color="#FFF23A"/>
<stop offset="0.04" stop-color="#FEE62D"/>
<stop offset="0.12" stop-color="#FED41A"/>
<stop offset="0.2" stop-color="#FDC90F"/>
<stop offset="0.28" stop-color="#FDC60B"/>
<stop offset="0.67" stop-color="#F28F3F"/>
<stop offset="0.89" stop-color="#ED693C"/>
<stop offset="1" stop-color="#E83E39"/>
</linearGradient>
<linearGradient id="paint3_linear_33_859" x1="82.243" y1="29.5534" x2="101.237" y2="29.5534" gradientUnits="userSpaceOnUse">
<stop stop-color="#FFF23A"/>
<stop offset="0.04" stop-color="#FEE62D"/>
<stop offset="0.12" stop-color="#FED41A"/>
<stop offset="0.2" stop-color="#FDC90F"/>
<stop offset="0.28" stop-color="#FDC60B"/>
<stop offset="0.67" stop-color="#F28F3F"/>
<stop offset="0.89" stop-color="#ED693C"/>
<stop offset="1" stop-color="#E83E39"/>
</linearGradient>
</defs>
</svg>
